grf
version=1
nRows=15
nColumns=37
inDegrees=no
endheader
time	ground_force_1_vx	ground_force_1_vy	ground_force_1_vz	ground_force_1_px	ground_force_1_py	ground_force_1_pz	ground_moment_1_mx	ground_moment_1_my	ground_moment_1_mz	ground_force_2_vx	ground_force_2_vy	ground_force_2_vz	ground_force_2_px	ground_force_2_py	ground_force_2_pz	ground_moment_2_mx	ground_moment_2_my	ground_moment_2_mz	ground_force_3_vx	ground_force_3_vy	ground_force_3_vz	ground_force_3_px	ground_force_3_py	ground_force_3_pz	ground_moment_3_mx	ground_moment_3_my	ground_moment_3_mz	ground_force_4_vx	ground_force_4_vy	ground_force_4_vz	ground_force_4_px	ground_force_4_py	ground_force_4_pz	ground_moment_4_mx	ground_moment_4_my	ground_moment_4_mz
      5.07000000	      0.00000000	     -0.00000000	      0.00000000	      0.00000000	      0.00000000	      0.00000000	      0.00000000	      0.00000000	      0.00000000	      1.96756995	     42.07283783	   -388.17736816	   -265.07563109	  -1058.97623735	      0.00000000	      0.00000000	      0.00000000	   3352.39004547	     -5.13325557	    -17.41923669	   -402.57968140	   -295.96839341	   -798.93771596	      0.00000000	      0.00000000	     -0.00000000	  -2062.98176716	      0.00000000	     -0.00000000	      0.00000000	      0.00000000	      0.00000000	      0.00000000	      0.00000000	      0.00000000	      0.00000000
      5.08000000	      0.00000000	     -0.00000000	      0.00000000	      0.00000000	      0.00000000	      0.00000000	      0.00000000	      0.00000000	      0.00000000	      2.67477727	     44.90789413	   -394.18533325	   -266.23185815	  -1058.88536515	      0.00000000	      0.00000000	      0.00000000	   3597.70429351	     -5.49818290	    -17.84285879	   -387.53601074	   -295.41409662	   -797.54375122	      0.00000000	     -0.00000000	     -0.00000000	  -2140.32161020	      0.00000000	     -0.00000000	      0.00000000	      0.00000000	      0.00000000	      0.00000000	      0.00000000	      0.00000000	      0.00000000
      5.09000000	      0.00000000	     -0.00000000	      0.00000000	      0.00000000	      0.00000000	      0.00000000	      0.00000000	      0.00000000	      0.00000000	      1.96688378	     45.98987198	   -402.28881836	   -267.73288586	  -1059.59324362	      0.00000000	      0.00000000	      0.00000000	   3336.40443389	     -5.24277699	    -17.75441887	   -373.92749023	   -294.75900096	   -798.65221738	      0.00000000	     -0.00000000	     -0.00000000	  -2212.35627244	      0.00000000	     -0.00000000	      0.00000000	      0.00000000	      0.00000000	      0.00000000	      0.00000000	      0.00000000	      0.00000000
      5.10000000	      0.00000000	     -0.00000000	      0.00000000	      0.00000000	      0.00000000	      0.00000000	      0.00000000	      0.00000000	      0.00000000	      2.31433558	     47.32567978	   -408.26074219	   -268.28734939	  -1060.53236744	      0.00000000	      0.00000000	      0.00000000	   3480.24739706	     -5.59041654	    -17.56624554	   -362.77499390	   -295.29465732	   -798.04543301	      0.00000000	     -0.00000000	     -0.00000000	  -2221.47399549	      0.00000000	     -0.00000000	      0.00000000	      0.00000000	      0.00000000	      0.00000000	      0.00000000	      0.00000000	      0.00000000
      5.11000000	      0.00000000	     -0.00000000	      0.00000000	      0.00000000	      0.00000000	      0.00000000	      0.00000000	      0.00000000	      0.00000000	      1.96379495	     48.21373749	   -409.70254517	   -267.58597297	  -1059.60507557	      0.00000000	      0.00000000	      0.00000000	   3435.12501317	     -4.79038385	    -16.78413731	   -354.04568481	   -295.40910495	   -797.55666548	      0.00000000	      0.00000000	     -0.00000000	  -2327.12581225	      0.00000000	     -0.00000000	      0.00000000	      0.00000000	      0.00000000	      0.00000000	      0.00000000	      0.00000000	      0.00000000
      5.12000000	      0.00000000	     -0.00000000	      0.00000000	      0.00000000	      0.00000000	      0.00000000	      0.00000000	      0.00000000	      0.00000000	      1.51552272	     48.48799515	   -411.47973633	   -267.35519019	  -1058.85755725	      0.00000000	     -0.00000000	      0.00000000	   3634.98773466	     -3.63573529	    -16.51755683	   -345.28326416	   -297.63265032	   -798.64619250	      0.00000000	     -0.00000000	     -0.00000000	  -2231.05579896	      0.00000000	     -0.00000000	      0.00000000	      0.00000000	      0.00000000	      0.00000000	      0.00000000	      0.00000000	      0.00000000
      5.13000000	      0.00000000	     -0.00000000	      0.00000000	      0.00000000	      0.00000000	      0.00000000	      0.00000000	      0.00000000	      0.00000000	      0.44885933	     49.01891708	   -416.05337524	   -267.56927852	  -1060.36806277	      0.00000000	     -0.00000000	     -0.00000000	   3431.80188174	     -1.68164061	    -16.24734101	   -336.25332642	   -300.54157444	   -800.10459875	      0.00000000	      0.00000000	     -0.00000000	  -2303.21455932	      0.00000000	     -0.00000000	      0.00000000	      0.00000000	      0.00000000	      0.00000000	      0.00000000	      0.00000000	      0.00000000
      5.14000000	      0.00000000	     -0.00000000	      0.00000000	      0.00000000	      0.00000000	      0.00000000	      0.00000000	      0.00000000	      0.00000000	     -0.44360813	     48.49100876	   -418.52468872	   -266.33916468	  -1059.74526603	      0.00000000	      0.00000000	      0.00000000	   3394.81430698	      0.79956419	    -15.62595851	   -330.99572754	   -304.88724648	   -799.75347558	      0.00000000	      0.00000000	     -0.00000000	  -2492.10346935	      0.00000000	     -0.00000000	      0.00000000	      0.00000000	      0.00000000	      0.00000000	      0.00000000	      0.00000000	      0.00000000
      5.15000000	      0.00000000	     -0.00000000	      0.00000000	      0.00000000	      0.00000000	      0.00000000	      0.00000000	      0.00000000	      0.00000000	     -1.42532527	     48.48897934	   -421.34368896	   -265.57617196	  -1059.61730927	      0.00000000	      0.00000000	      0.00000000	   3277.47002545	      3.19772859	    -14.13662462	   -328.53945923	   -307.71925737	   -801.11381213	      0.00000000	      0.00000000	     -0.00000000	  -2421.15385861	      0.00000000	     -0.00000000	      0.00000000	      0.00000000	      0.00000000	      0.00000000	      0.00000000	      0.00000000	      0.00000000
      5.16000000	      0.00000000	     -0.00000000	      0.00000000	      0.00000000	      0.00000000	      0.00000000	      0.00000000	      0.00000000	      0.00000000	     -2.31889963	     48.39208221	   -423.46957397	   -265.72658595	  -1059.49637932	      0.00000000	      0.00000000	      0.00000000	   3231.86013933	      4.52610614	    -13.42397253	   -329.60644531	   -309.93094084	   -801.06453218	      0.00000000	     -0.00000000	      0.00000000	  -2554.29388968	      0.00000000	     -0.00000000	      0.00000000	      0.00000000	      0.00000000	      0.00000000	      0.00000000	      0.00000000	      0.00000000
      5.17000000	      0.00000000	     -0.00000000	      0.00000000	      0.00000000	      0.00000000	      0.00000000	      0.00000000	      0.00000000	      0.00000000	     -2.94621158	     47.23865891	   -425.94577026	   -264.90138995	  -1060.07696202	      0.00000000	     -0.00000000	      0.00000000	   3110.48656188	      4.87585723	    -12.36584134	   -333.78894043	   -311.14255074	   -799.67865236	      0.00000000	     -0.00000000	     -0.00000000	  -2703.24138974	      0.00000000	     -0.00000000	      0.00000000	      0.00000000	      0.00000000	      0.00000000	      0.00000000	      0.00000000	      0.00000000
      5.18000000	      0.00000000	     -0.00000000	      0.00000000	      0.00000000	      0.00000000	      0.00000000	      0.00000000	      0.00000000	      0.00000000	     -4.01383305	     47.23559570	   -429.12377930	   -264.47702583	  -1058.77742390	      0.00000000	      0.00000000	      0.00000000	   3037.89293507	      4.34682741	    -12.00838127	   -333.43716431	   -311.07371597	   -802.55058827	      0.00000000	     -0.00000000	     -0.00000000	  -2939.15647888	      0.00000000	     -0.00000000	      0.00000000	      0.00000000	      0.00000000	      0.00000000	      0.00000000	      0.00000000	      0.00000000
      5.19000000	      0.00000000	     -0.00000000	      0.00000000	      0.00000000	      0.00000000	      0.00000000	      0.00000000	      0.00000000	      0.00000000	     -5.35143423	     45.90235901	   -433.00411987	   -263.20513728	  -1058.46097843	      0.00000000	      0.00000000	      0.00000000	   2837.52420299	      3.01616564	    -11.92675235	   -334.48724365	   -311.41925525	   -800.64925499	      0.00000000	      0.00000000	      0.00000000	  -2737.59736463	      0.00000000	     -0.00000000	      0.00000000	      0.00000000	      0.00000000	      0.00000000	      0.00000000	      0.00000000	      0.00000000
      5.20000000	      0.00000000	     -0.00000000	      0.00000000	      0.00000000	      0.00000000	      0.00000000	      0.00000000	      0.00000000	      0.00000000	     -5.97719574	     45.45650482	   -439.00088501	   -263.10821477	  -1059.44159361	      0.00000000	      0.00000000	      0.00000000	   2934.99908536	      1.68640271	    -11.92521778	   -333.78717041	   -310.61788990	   -799.59968705	      0.00000000	      0.00000000	     -0.00000000	  -2676.29356431	      0.00000000	     -0.00000000	      0.00000000	      0.00000000	      0.00000000	      0.00000000	      0.00000000	      0.00000000	      0.00000000
      5.21000000	      0.00000000	     -0.00000000	      0.00000000	      0.00000000	      0.00000000	      0.00000000	      0.00000000	      0.00000000	      0.00000000	     -6.69102287	     45.01085663	   -438.64981079	   -262.10171802	  -1058.34447866	      0.00000000	     -0.00000000	      0.00000000	   2924.39511924	      0.97483009	    -12.27835282	   -331.34362793	   -310.29213933	   -801.23161958	      0.00000000	      0.00000000	     -0.00000000	  -2873.75410109	      0.00000000	     -0.00000000	      0.00000000	      0.00000000	      0.00000000	      0.00000000	      0.00000000	      0.00000000	      0.00000000
